<svg id="icons" enable-background="new 0 0 64 64" height="512" viewBox="0 0 64 64" width="512" xmlns="http://www.w3.org/2000/svg"><g><g><circle cx="29.508" cy="2.5" fill="#ffce54" r="1.5"/></g><g><path d="m44.668 55.65c-3.13 3.13-8.189 3.13-11.32 0-1.56-1.561-2.34-3.61-2.34-5.65 0-2.05.78-4.1 2.34-5.66 3.131-3.12 15.271-10.2 18.391-7.08 3.129 3.12-3.951 15.27-7.071 18.39z" fill="#a0d468"/></g><g><path d="m29.508 17c-.83 0-1.5-.68-1.5-1.5v-7.66-5.34c0 .83.67 1.5 1.5 1.5s1.5-.67 1.5-1.5v5.34 7.66c0 .82-.67 1.5-1.5 1.5z" fill="#f6bb42"/></g><g><path d="m28.008 63v-26.4l1.5 1.4 1.5-1.4v13.4 13z" fill="#8cc152"/></g><g><path d="m28.008 15.5c0 .82.67 1.5 1.5 1.5s1.5-.68 1.5-1.5v-7.66c4.11-2.82 9.78-2.399 13.431 1.25 4.13 4.13 4.13 10.82 0 14.94l-13.431 12.57-1.5 1.4-1.5-1.4-13.43-12.57c-4.13-4.12-4.13-10.811 0-14.94 3.65-3.649 9.32-4.07 13.43-1.25z" fill="#ed5565"/></g></g><g><g><path d="m29.51 39c-.245 0-.491-.09-.683-.27l-14.933-13.966c-2.211-2.206-3.415-5.109-3.415-8.199 0-3.089 1.204-5.994 3.391-8.18 3.937-3.938 10.122-4.514 14.707-1.365.456.313.571.935.259 1.39-.313.457-.935.573-1.39.259-3.792-2.602-8.906-2.126-12.162 1.131-1.809 1.809-2.805 4.211-2.805 6.766s.996 4.956 2.804 6.761l14.227 13.304 14.251-13.328c1.784-1.782 2.78-4.184 2.78-6.738s-.996-4.957-2.805-6.766c-3.255-3.257-8.371-3.731-12.161-1.131-.454.314-1.077.198-1.39-.259-.313-.455-.197-1.077.259-1.39 4.585-3.148 10.771-2.572 14.706 1.365 2.187 2.186 3.391 5.091 3.391 8.18 0 3.09-1.204 5.993-3.392 8.177l-14.957 13.989c-.191.18-.437.27-.682.27z"/></g><g><path d="m31.01 3.5c-.553 0-1-.447-1-1 0-.275-.225-.5-.5-.5s-.5.225-.5.5c0 .553-.447 1-1 1s-1-.447-1-1c0-1.379 1.121-2.5 2.5-2.5s2.5 1.121 2.5 2.5c0 .553-.447 1-1 1z"/></g><g><path d="m29.51 5c-1.379 0-2.5-1.121-2.5-2.5 0-.553.447-1 1-1s1 .447 1 1c0 .275.225.5.5.5s.5-.225.5-.5c0-.553.447-1 1-1s1 .447 1 1c0 1.379-1.121 2.5-2.5 2.5z"/></g><g><path d="m28.01 16.496c-.553 0-1-.447-1-1v-12.996c0-.553.447-1 1-1s1 .447 1 1v12.996c0 .553-.447 1-1 1z"/></g><g><path d="m31.01 16.496c-.553 0-1-.447-1-1v-12.996c0-.553.447-1 1-1s1 .447 1 1v12.996c0 .553-.447 1-1 1z"/></g><g><path d="m28.01 64c-.553 0-1-.447-1-1v-26.404c0-.553.447-1 1-1s1 .447 1 1v26.404c0 .553-.447 1-1 1z"/></g><g><path d="m31.01 64c-.553 0-1-.447-1-1v-26.404c0-.553.447-1 1-1s1 .447 1 1v26.404c0 .553-.447 1-1 1z"/></g><g><path d="m29.51 17.996c-1.379 0-2.5-1.121-2.5-2.5 0-.553.447-1 1-1s1 .447 1 1c0 .275.225.5.5.5s.5-.225.5-.5c0-.553.447-1 1-1s1 .447 1 1c0 1.379-1.121 2.5-2.5 2.5z"/></g><g><path d="m39.009 58.997c-2.404 0-4.664-.937-6.364-2.636-3.509-3.511-3.508-9.221 0-12.729 2.79-2.79 11.779-8.149 16.743-8.149 1.321 0 2.353.36 3.063 1.071 3.972 3.971-4.296 17.023-7.078 19.807-1.7 1.7-3.96 2.636-6.364 2.636zm10.379-21.514c-4.249 0-12.772 5.008-15.329 7.563-2.729 2.729-2.729 7.17 0 9.9 1.322 1.321 3.08 2.05 4.95 2.05s3.628-.729 4.95-2.05c3.489-3.491 9.384-14.672 7.078-16.979-.322-.321-.877-.484-1.649-.484z"/></g></g></svg>