<?xml version="1.0" encoding="UTF-8"?>
<svg version="1.1" viewBox="0 0 128 128" xml:space="preserve" xmlns="http://www.w3.org/2000/svg" xmlns:cc="http://creativecommons.org/ns#" xmlns:dc="http://purl.org/dc/elements/1.1/" xmlns:rdf="http://www.w3.org/1999/02/22-rdf-syntax-ns#"><metadata><rdf:RDF><cc:Work rdf:about=""><dc:format>image/svg+xml</dc:format><dc:type rdf:resource="http://purl.org/dc/dcmitype/StillImage"/><dc:title/></cc:Work></rdf:RDF></metadata><g transform="translate(-8.2085 -9.9068)"><g transform="matrix(3.0602 0 0 -3.0602 24.118 395.77)"><g transform="translate(11.703 87.356)"><path d="m0 0c-0.016 0-0.03 2e-3 -0.044 7e-3 -0.27 0.09-0.755 0.309-0.853 0.413-5e-3 0.024-0.01 0.071-0.014 0.103-0.012 0.123-0.026 0.263-0.123 0.364-0.063 0.064-0.138 0.084-0.189 0.093-0.079 0.14-0.142 0.4-0.083 0.579 0.042 0.128 0.225 0.451 0.288 0.508 9e-3 7e-3 0.042 0.021 0.068 0.032 0.081 0.033 0.204 0.084 0.276 0.214 0.186 0.34 0.258 0.684 0.341 1.082l0.039 0.183-0.14 0.081c-0.206 0.122-0.567 0.536-0.471 0.943 8e-3 0.031 0.038 0.094 0.064 0.148 0.073 0.151 0.155 0.322 0.117 0.493-0.026 0.111-0.104 0.201-0.168 0.273-0.015 0.018-0.03 0.033-0.04 0.047-0.129 0.217-0.269 1.086-0.225 1.27 0.025 0.104 0.102 0.424 0.195 0.592 0.015 0.029 0.043 0.055 0.079 0.09 0.08 0.077 0.203 0.194 0.234 0.419l0.021 0.15-0.13 0.076c-0.034 0.019-0.115 0.153 0.238 1.055 0.114 0.291 0.166 0.424 0.106 0.537-0.025 0.078-0.055 0.131-0.078 0.17-0.022 0.039-0.035 0.063-0.042 0.114 0.056 0.117 0.056 0.247 0.057 0.363 0 0.095 0 0.184 0.028 0.25 0.082 0.191 0.217 0.372 0.361 0.564 0.146 0.196 0.297 0.398 0.395 0.622l0.136 0.315h-0.619l-0.052-0.03c-0.054 2e-3 -0.149 0.047-0.211 0.078-0.037 0.018-0.071 0.033-0.099 0.044l-0.039 0.016h-0.132l-9e-3 0.025-0.061 0.043c-0.068 0.048-0.132 0.076-0.188 0.102-0.05 0.022-0.089 0.039-0.12 0.066-0.036 0.029-0.065 0.076-0.099 0.13-0.077 0.121-0.181 0.286-0.422 0.347l-0.102 0.026-0.077-0.055c-0.022 4e-3 -0.052 9e-3 -0.089 9e-3 -0.039 0-0.078-5e-3 -0.121-0.013-0.086-0.018-0.165-0.027-0.24-0.027-0.197 0-0.349 0.062-0.543 0.139-0.078 0.032-0.16 0.065-0.25 0.096l-0.029 0.01-0.535 0.035c-0.487 0.191-0.679 0.341-0.868 0.828v0.342l-5e-3 0.023c-0.072 0.332-0.047 0.446-0.041 0.465 0.014 0.047 0.122 0.422 0.091 0.684 0.108 0.243 0.208 0.484 0.304 0.717 0.247 0.599 0.481 1.165 0.838 1.708 0.147 0.223 0.385 0.429 0.616 0.628 0.046 0.04 0.092 0.08 0.136 0.118 0.048 0.043 0.122 0.079 0.199 0.117 0.148 0.074 0.316 0.157 0.421 0.332 0.099 0.164 0.149 0.326 0.197 0.482 0.038 0.124 0.074 0.241 0.135 0.36 0.044 0.085 0.105 0.17 0.17 0.258 0.053 0.074 0.108 0.149 0.158 0.231h0.201v0.248c0.058 0.049 0.093 0.098 0.122 0.138 0.021 0.028 0.037 0.05 0.061 0.073 0.114 0.11 0.407 0.251 0.569 0.311 0.052 0.019 0.105 0.028 0.169 0.028 0.071 0 0.144-0.011 0.222-0.023 0.084-0.013 0.17-0.027 0.26-0.027 0.113 0 0.213 0.022 0.305 0.066l0.022 0.011 0.02 0.016c0.415 0.33 0.59 1.203 0.516 1.823l-0.025 0.202-0.261-5e-3c-0.352 0-0.433 0.064-0.569 0.17-0.076 0.059-0.171 0.133-0.313 0.204l-0.169 0.082-0.112-0.151c-0.129-0.174-0.738-0.62-1.087-0.62-0.066 0-0.12 9e-3 -0.151 0.104 5e-3 0.017 9e-3 0.034 0.012 0.052 0.306 0.166 0.427 0.451 0.526 0.686 0.057 0.136 0.112 0.264 0.194 0.369 0.142 0.18 0.242 0.342 0.337 0.499 0.154 0.25 0.287 0.466 0.563 0.69 0.035 0.027 0.07 0.057 0.106 0.09 0.145 0.126 0.295 0.258 0.489 0.258 0.012 0 0.025-1e-3 0.038-2e-3 0.011-1e-3 0.023-1e-3 0.035-1e-3 0.046 0 0.088 7e-3 0.129 0.013 0.035 6e-3 0.069 0.011 0.101 0.011 0.028 0 0.053-4e-3 0.078-0.012 0.044-0.015 0.09-0.043 0.143-0.076 0.077-0.048 0.174-0.108 0.3-0.144l0.211-0.057 0.064 0.209c0.01 8e-3 0.063 0.015 0.097 0.019 0.119 0.015 0.298 0.038 0.414 0.207l0.057 0.083-0.014 0.058c3e-3 6e-3 7e-3 0.012 0.012 0.019 0.043 0.07 0.109 0.177 0.127 0.339l0.025 0.227-0.228 0.021c-0.473 0.044-1.311 0.547-1.669 0.762-0.061 0.036-0.114 0.058-0.157 0.077-0.016 6e-3 -0.036 0.014-0.048 0.021-3e-3 0.011-8e-3 0.035-0.01 0.079l-4e-3 0.082-0.055 0.06c-3e-3 5e-3 -5e-3 0.012-7e-3 0.02l2e-3 2e-3c0.03 0.035 0.03 0.035 0.058 0.045l0.033 0.012 0.027 0.021c0.067 0.049 0.289 0.107 0.696 0.107 0.416 0 0.82-0.056 1.02-0.109 7e-3 -2e-3 0.757-0.194 0.99-0.194 0.046 0 0.116 6e-3 0.178 0.054l0.017 0.014 0.014 0.016c0.157 0.181 0.212 0.41 0.265 0.631 0.028 0.119 0.055 0.232 0.096 0.329 0.195 0.461 0.316 1.051 0.432 1.622 0.053 0.254 0.102 0.493 0.156 0.716 0.034 0.144 0.055 0.306 0.075 0.462 0.039 0.302 0.087 0.678 0.243 0.76 0.142 0.075 0.544 0.127 0.977 0.127 0.377 0 0.606-0.038 0.668-0.064l0.103-0.042 0.096 0.055c4e-3 0 0.078 0.02 0.291 0.02 0.381 0 0.887-0.06 1.131-0.13l0.103-0.103 0.083-0.033 0.048-1e-3c0.057 0 0.101 0.019 0.132 0.034 3e-3 1e-3 6e-3 2e-3 9e-3 3e-3 0.034-0.01 0.075-0.022 0.122-0.036 0.172-0.051 0.475-0.141 0.623-0.204l0.072-0.107 0.056-0.027c0.123-0.058 0.246-0.069 0.354-0.079 0.078-7e-3 0.145-0.013 0.2-0.035 0.028-0.011 0.072-0.037 0.114-0.062 0.111-0.066 0.248-0.147 0.402-0.147h8e-3c6e-3 -6e-3 0.012-0.011 0.016-0.016 0.055-0.052 0.106-0.101 0.167-0.129 0.124-0.058 0.245-0.082 0.352-0.102 0.096-0.019 0.179-0.035 0.249-0.073 0.053-0.028 0.127-0.085 0.2-0.14 0.09-0.069 0.183-0.14 0.271-0.185 0.112-0.058 0.21-0.089 0.297-0.116 0.073-0.022 0.133-0.041 0.194-0.073 1e-3 -3e-3 3e-3 -6e-3 4e-3 -9e-3 0.022-0.054 0.052-0.128 0.125-0.181l0.059-0.043h0.091l0.04-0.043c0.042-0.042 0.096-0.067 0.195-0.112 0.027-0.013 0.054-0.024 0.073-0.035 0.06-0.031 0.127-0.062 0.195-0.093 0.176-0.08 0.375-0.17 0.42-0.29l9e-3 -0.026 9e-3 -0.013c0-2e-3 1e-3 -5e-3 1e-3 -9e-3 -0.174-0.196-0.265-0.444-0.354-0.685-0.05-0.137-0.097-0.265-0.158-0.38-9e-3 -0.018-0.053-0.059-0.082-0.086-0.061-0.057-0.13-0.123-0.172-0.207l-0.041-0.083 0.026-0.08c-0.039-0.043-0.073-0.082-0.094-0.127l-0.022-0.046v-0.033l-0.089-0.03-0.05-0.4c-0.06-0.147-0.145-0.321-0.228-0.49-0.081-0.164-0.164-0.335-0.228-0.488-0.077-0.184-0.101-0.354-0.122-0.504-0.02-0.143-0.037-0.265-0.092-0.393-0.019-0.043-0.042-0.084-0.065-0.125-0.059-0.105-0.133-0.238-0.167-0.429l-0.049-0.273 0.278 9e-3c0.055-5e-3 0.298-0.082 0.433-0.152l0.105-0.208h0.193l9e-3 -0.031 0.068-0.042c0.108-0.069 0.216-0.09 0.302-0.107 0.055-0.011 0.103-0.02 0.132-0.039 0.129-0.079 0.264-0.158 0.4-0.238 0.319-0.186 0.649-0.379 0.922-0.591l6e-3 -0.021c0.018-0.057 0.045-0.144 0.119-0.208 0.031-0.027 0.079-0.063 0.135-0.104 0.079-0.058 0.275-0.201 0.333-0.288-0.048-0.051-0.118-0.078-0.313-0.078h-0.036c-0.073 0.024-0.143 0.027-0.191 0.027-0.041 0-0.085-3e-3 -0.132-6e-3 -0.044-3e-3 -0.091-7e-3 -0.143-7e-3 -0.064 0-0.122 6e-3 -0.18 0.018-0.112 0.023-0.28 0.067-0.459 0.114-0.25 0.066-0.533 0.141-0.737 0.175l-0.136 0.024-0.082-0.111c-0.053-0.072-0.218-0.194-0.721-0.197l-0.172-2e-3 -0.044-0.166c-0.078-0.298-0.498-0.384-0.741-0.409l-0.205-0.021 3e-3 -0.206c3e-3 -0.293 0.071-0.505 0.13-0.692 0.02-0.063 0.04-0.125 0.057-0.19 4e-3 -0.023-0.015-0.093-0.024-0.126-0.02-0.069-0.051-0.185 5e-3 -0.283 0.076-0.198 0.222-0.36 0.352-0.504 0.091-0.101 0.178-0.197 0.226-0.288 0.026-0.048 0.04-0.118 0.056-0.192 0.025-0.119 0.053-0.254 0.141-0.374l0.017-0.025 0.024-0.019c0.104-0.082 0.211-0.157 0.315-0.228 0.225-0.156 0.437-0.302 0.573-0.511 0.038-0.057 0.075-0.187 0.105-0.291 0.051-0.174 0.09-0.312 0.181-0.398 0.158-0.15 0.363-0.249 0.562-0.345 0.283-0.136 0.551-0.266 0.689-0.531 0.104-0.199 0.151-0.955 0.121-1.159-2e-3 -0.01-0.013-0.04-0.02-0.061-0.032-0.085-0.079-0.215-0.051-0.372 0.163-0.894-0.21-2.363-0.726-2.857-0.136-0.131-0.306-0.194-0.521-0.274-0.065-0.024-0.131-0.048-0.199-0.076-0.074-0.03-0.132-0.081-0.183-0.126-0.021-0.018-0.052-0.046-0.065-0.053-0.119-0.039-0.472-0.102-0.739-0.102-0.15 0-0.197 0.021-0.197 0.021l-0.07 0.033-0.081-0.015c-0.049-0.011-0.104-0.017-0.164-0.017-0.184 0-0.412 0.052-0.677 0.153l-0.039 0.014h-0.282c-0.558 0.25-1.245 0.727-1.448 1.591l-0.04 0.169-0.174 4e-3c-0.126 3e-3 -0.169 0.035-0.236 0.108l-0.101 0.109-0.14-0.05-0.027-9e-3c-0.04-0.013-0.067-0.028-0.098-0.054l-0.027-0.021-0.029-0.036c-0.204-0.295-0.275-0.661-0.338-0.983-0.041-0.212-0.08-0.413-0.149-0.562l-0.136-0.291 0.32-0.028c0.417-0.036 1.515-0.516 1.863-0.783 0.04-0.03 0.117-0.136 0.174-0.213 0.106-0.144 0.206-0.28 0.321-0.344 0.087-0.049 0.166-0.058 0.223-0.062l0.018-0.055 0.051-0.041c0.111-0.09 0.213-0.1 0.28-0.1l0.049 1e-3c0.181-0.096 0.83-0.604 0.934-0.732 0.108-0.134 0.2-0.28 0.296-0.435 0.077-0.123 0.155-0.248 0.244-0.371-0.014-0.05-0.027-0.099-0.04-0.147-0.123-0.461-0.213-0.795-0.53-1.028-0.089-0.065-0.214-0.115-0.346-0.167-0.284-0.112-0.637-0.252-0.746-0.638l-0.028-0.099 0.058-0.087c0.047-0.069 0.029-0.208 0.013-0.33-6e-3 -0.049-0.012-0.097-0.015-0.141l-0.012-0.187 0.181-0.046c0.337-0.087 0.576-0.231 0.83-0.383 0.076-0.045 0.152-0.091 0.231-0.136 0.076-0.042 0.151-0.047 0.2-0.047 0.019 0 0.038 1e-3 0.057 2e-3 0.012 0 0.024 1e-3 0.037 1e-3 8e-3 -0.015 0.02-0.037 0.028-0.053 0.021-0.04 0.043-0.085 0.077-0.129 0.049-0.067 0.114-0.112 0.171-0.151 0.026-0.018 0.065-0.045 0.075-0.058 0.16-0.237 0.106-0.69-0.045-0.947 0 0 0 1e-3 -1e-3 1e-3 -6e-3 0-0.028-9e-3 -0.045-0.016-0.053-0.021-0.126-0.049-0.193-0.108-0.08-0.067-0.101-0.159-0.114-0.214 0-2e-3 -1e-3 -5e-3 -1e-3 -9e-3 -0.07-0.059-0.284-0.173-0.402-0.219-0.031 0.016-0.072 0.029-0.122 0.029h-0.023l-0.03-5e-3c-0.126-0.026-0.246-0.039-0.367-0.039-0.447 0-0.811 0.176-1.195 0.363-0.212 0.103-0.432 0.21-0.665 0.282-0.119 0.038-0.235 0.056-0.354 0.056-0.118 0-0.219-0.018-0.308-0.034-0.073-0.013-0.136-0.024-0.197-0.024-0.058 0-0.113 0.011-0.17 0.033l-0.071 0.028-0.094-0.027c-0.066-0.019-0.141-0.042-0.192-0.042-0.018 0-0.024 3e-3 -0.024 3e-3 -1e-3 1e-3 -5e-3 5e-3 -0.011 0.015l-0.013 0.021-0.017 0.019c-0.151 0.16-0.218 0.645-0.095 0.921l0.151 0.113 0.024 0.058c0.091 0.22-0.016 0.414-0.086 0.542-0.017 0.03-0.041 0.075-0.045 0.091-9e-3 0.043-3e-3 0.084 0.011 0.166 7e-3 0.044 0.015 0.094 0.021 0.153 0.129 0.07 0.221 0.142 0.281 0.215l0.163 0.2-0.219 0.134c-0.074 0.045-0.076 0.046-0.073 0.201l1e-3 0.063-0.032 0.054c-7e-3 0.044 0.07 0.215 0.107 0.297 0.041 0.092 0.081 0.179 0.099 0.261l0.026 0.121-0.197 0.196-0.092-7e-3c-0.129 0.012-0.741 0.146-0.868 0.209-0.013 0.012-0.026 0.027-0.042 0.046-0.051 0.059-0.119 0.141-0.26 0.196l-0.161 0.065-0.103-0.14c-7e-3 -5e-3 -0.053-0.024-0.127-0.024-0.052 0-0.105 9e-3 -0.146 0.026-0.126 0.052-0.246 0.152-0.372 0.257-0.194 0.16-0.414 0.342-0.699 0.371l-0.105 0.011-0.076-0.075c-0.063-0.061-0.157-0.099-0.268-0.144-0.096-0.039-0.207-0.083-0.311-0.152-0.086-0.058-0.185-0.14-0.281-0.22-0.075-0.062-0.153-0.126-0.215-0.171-7e-3 -1e-3 -0.019-2e-3 -0.04-2e-3l-0.068 1e-3c-0.093 0-0.202-9e-3 -0.301-0.081l-0.048-0.033-0.025-0.053c-0.128-0.267-0.279-0.572-0.307-0.619-0.026-0.035-0.092-0.078-0.161-0.124-0.131-0.086-0.293-0.193-0.368-0.39l-0.049-0.133 0.098-0.102c0.123-0.129 0.179-0.429 0.139-0.746-0.038-0.308-0.151-0.508-0.24-0.564l-0.165-0.103 0.078-0.178c0.183-0.419 0.159-0.504 0.058-0.858-0.021-0.075-0.045-0.158-0.07-0.255l-0.039-0.151 0.128-0.09c0.335-0.234 0.298-0.781-0.11-1.626l-0.018-0.037-0.028-0.348-0.084-0.041v-0.288l-0.031-0.016-0.029-0.088c-0.031-0.092-0.016-0.182-4e-3 -0.253 9e-3 -0.056 0.018-0.104 5e-3 -0.139-0.156-0.439-0.585-0.728-1.392-0.938-0.042-0.01-0.084-0.025-0.127-0.04-0.063-0.022-0.121-0.043-0.169-0.043" fill="#eccea0" fill-rule="evenodd"/></g><g transform="translate(23.323 111.09)"><path d="m0 0-0.504 0.576c-0.371 0.254-1.619 0.594-2.124 0.36-0.3 0.474-0.57 0.809-1.368 0.792-0.084-0.092-0.189-0.289-0.288-0.36-0.092-0.066-0.176-0.068-0.252-0.144-0.08 0.047-0.138 0.209-0.18 0.288-0.307 0.082-0.748 0.139-1.044 0.288-0.333 0.169-0.659 0.506-1.044 0.612-0.284 0.078-0.455-0.189-0.756-0.072-0.473 0.185-0.79 0.445-1.511 0.432-0.028-0.025-0.081-0.047-0.109-0.072-0.353-0.132-0.119-0.329-0.252-0.504l-0.252-0.072c-0.104-0.063-0.183-0.183-0.288-0.252-6e-3 -0.011-0.448 0.185-0.575 0.216-0.294 0.072-0.7-0.073-0.865-0.18-0.722-0.469-0.716-1.786-1.511-2.304 7e-3 -0.15 0.025-0.165 0.072-0.252 0.514 2e-3 0.889 0.461 1.08 0.792 0.225-0.079 0.548-0.591 0.864-0.396h0.468c-0.129-0.37 0.057-0.97-0.072-1.368-0.127-0.39-0.726-0.874-0.432-1.547l0.323-0.361c0.36-0.027 0.274 0.044 0.504 0.144 0.113 0.05 0.22-0.103 0.361 0 0.412 0.144 0.167 0.538 0.323 0.936 0.157 0.24 0.312 0.48 0.469 0.72 0.267-0.024 0.426-0.038 0.611 0.072 0.021 0.098 0.037 0.187 0.037 0.324-0.104 0.1-0.24 0.248-0.325 0.36-0.144 0-0.372-0.051-0.467 0-0.359 0.162-0.119 1.032-0.073 1.332 0.26-0.089 0.51 0.073 0.649 0.216 0.568 8e-3 0.762-0.313 0.971-0.648 0.121-0.012 0.24-0.024 0.36-0.036 0.058 0.014 0.113 0.091 0.217 0.072 0.344-0.063 0.762-0.262 1.115-0.36 0.182-0.05 0.434 0.018 0.54-0.036 0.316 0.023 0.194 0.157 0.36 0.288 0.29 0.229 0.723 0.274 0.936 0.576 0.313-0.034 0.513-0.118 0.684-0.288 0.233-0.363 0.066-0.85 0.504-1.008-0.12-0.246-0.293-0.119-0.576-0.216-0.146-0.05-0.189-0.191-0.288-0.288 9e-3 -0.125 0.013-0.152 0.072-0.215 0.088-0.216 0.33-0.164 0.504-0.289 0.234-0.167 0.29-0.559 0.576-0.684 0.187-0.081 0.399 0.082 0.648 0 0.171-0.056 0.395-0.328 0.576-0.252 0.183 0.02 0.177 0.07 0.288 0.144 0.076 0.375-0.014 0.897-0.216 1.116v0.072c0.497 0.087 0.619-0.05 1.044 0.216 0.033 0.165 0.015 0.289 0 0.468 0.522 0.097 0.648-0.077 1.044 0.18 5e-3 0.614-0.495 0.367-0.828 0.612" fill="#8e4a06" fill-rule="evenodd"/></g><g transform="translate(8.5636 100.5)"><path d="m0 0h0.288c0.233-0.064 0.789-0.278 1.008-0.108 0.416 0.295-0.08 0.664-0.252 0.9-0.399 0.546-1.418 1.639-1.116 2.592l0.288 0.864c0.197 0.323 1.197 1.249 1.548 1.404h0.648c0.2 0.047 0.825 0.143 0.972 0.252 0.498 0.35 0.442 1.804 0.036 2.232-0.18-0.01-0.241-0.037-0.288-0.18-0.085 0.042-0.21 0.086-0.288 0.144-0.582-0.075-1.233-1.153-1.476-1.62-0.079-0.151-0.102-0.414-0.216-0.54-0.129-0.143-0.327-0.149-0.504-0.252-0.2-0.116-0.331-0.425-0.468-0.612-0.088-0.119-0.281-0.17-0.36-0.288l-0.144-0.396c-0.225-0.434-0.499-0.804-0.54-1.44-0.074-0.014-0.069-9e-3 -0.108-0.036-0.097-0.033-0.105-0.062-0.18-0.108-0.156-0.682-0.177-2.019 0.288-2.412 0.214-0.18 0.562-0.32 0.864-0.396" fill="#8e4a06" fill-rule="evenodd"/></g><g transform="translate(23.251 106.55)"><path d="m0 0c-0.102-0.148-0.187-0.111-0.36-0.18 5e-3 -0.287 0.516-0.771 0.72-0.828 0.085-0.024 0.314 0.092 0.396 0.108-0.067 0.449-0.357 0.616-0.576 0.9z" fill="#8e4a06" fill-rule="evenodd"/></g><g transform="translate(19.759 104.57)"><path d="m0 0-0.036 0.036-0.216 0.036c-0.167-0.174-0.37-0.294-0.432-0.576 0.052-0.058 0.105-0.151 0.144-0.216 0.211 0.011 0.307 0.068 0.468 0.108 0.055 0.207 0.097 0.39 0.072 0.612" fill="#8e4a06" fill-rule="evenodd"/></g><g transform="translate(14.252 100.54)"><path d="m0 0c-0.212-0.033-0.397-5e-3 -0.576-0.108-0.024-0.062-7e-3 -0.035-0.036-0.072-3e-3 -0.812 0.711-0.874 1.404-1.008 0.074-0.014 0.205 0.06 0.288 0.036 0.116-0.033 0.281-0.234 0.54-0.144l0.18 0.18h0.756c0.612 0.141 1.153 0.228 1.584 0.54 0.471 0.342 0.543 1.086 0.9 1.548-9e-3 0.325-0.1 0.329-0.216 0.504-0.096 0.144-0.399 0.883-0.432 1.044-0.064 0.31 0.219 0.22-0.037 0.648-0.391-0.019-0.691-0.211-1.043-0.288-0.138 0.133-0.371 0.149-0.541 0.252-0.454 0.277-1.042 0.763-1.691 0.792-0.068-0.121-0.129-0.286-0.216-0.396 0.044-0.316 0.453-0.737 0.36-1.044-0.143-0.473-0.68-0.708-0.864-1.152-0.092-0.223-2e-3 -0.475-0.072-0.756-0.053-0.21-0.189-0.405-0.288-0.576" fill="#8e4a06" fill-rule="evenodd"/></g><g transform="translate(22.891 97.085)"><path d="m0 0c-0.131 0.161-0.184 0.43-0.36 0.54-0.102 0.064-0.267-0.021-0.396 0.036-0.311 0.137-0.382 0.463-0.936 0.468-0.456-0.422-1.294-0.498-1.835-0.828-0.404-0.247-0.912-0.597-1.188-0.972-0.051-0.068-0.05-0.125-0.109-0.18-1e-3 -0.632 0.774-0.436 1.116-0.72h0.432c-0.13-0.191-0.672-0.837-0.539-1.116 0.014-0.145 0.039-0.141 0.071-0.252 0.898-0.23 2.161-0.03 2.7 0.36 0.14 0.101 0.161 0.329 0.288 0.432 0.074 0.06 0.176 0.053 0.252 0.108 0.213 0.152 0.758 0.633 0.864 0.864 0.165 0.36 0.082 0.797-0.108 1.08l-0.252 0.18" fill="#8e4a06" fill-rule="evenodd"/></g><g transform="translate(12.703 97.877)"><path d="m0 0c-0.194-0.121-0.552-0.017-0.72-0.144-0.343-0.114-0.322-0.44-0.468-0.756-0.086-0.188-0.292-0.31-0.396-0.468-0.188-0.289-0.188-1.304 0.036-1.548-0.047-0.136-0.153 0.041-0.324-0.036-0.072-0.06-0.144-0.12-0.216-0.179-0.255-1.115 0.422-2.713 1.116-3.06 0.215-0.107 0.599-0.012 0.828 0 0.425 0.401 1.086 1.001 1.296 1.584 0.101 0.279 0.04 0.812-0.108 0.971 0.043 0.229 0.213 0.213 0.324 0.361 0.238 0.317 0.966 1.308 0.792 1.943-0.049 0.181-0.195 0.295-0.288 0.432-0.382 0.096-0.642 0.037-0.972 0.288-0.319 0.244-0.301 0.613-0.9 0.612" fill="#8e4a06" fill-rule="evenodd"/></g><g transform="translate(17.563 99.497)"><path d="m0 0c-0.055 0.038-0.147 0.038-0.252 0.036l-0.18-0.18c-0.184 0.029-0.312 0.164-0.504 0.072l-0.072-0.108h-0.252c-0.073-0.025-0.16-0.159-0.216-0.18-0.111-0.041-0.124 0.052-0.216 0-0.135-0.013-0.134-0.028-0.216-0.072-0.014-0.146-0.028-0.252 0.072-0.36 0.059-0.142 0.228-0.179 0.324-0.288 0.329 0.054 1.276 0.178 1.476 0.324 0.143 0.051 0.305 0.358 0.216 0.504-0.013 0.172-0.041 0.21-0.18 0.252" fill="#ffa500" fill-rule="evenodd"/></g><g transform="translate(19.255 119.91)"><path d="m0 0c-0.269 0.086-1.032 0.06-1.116 0-0.352 0.124-0.653 0.078-1.116 0.036 0-0.098-1e-3 -0.165-0.036-0.216v-0.036c-0.119 0.041-0.211 0.132-0.288 0.216-0.961-0.07-0.749-1.48-1.007-2.232-0.044-0.126 0.04-0.492 0-0.576-0.012-0.024-0.127-0.062-0.145-0.108-0.074-0.202 9e-3 -0.268-0.108-0.396 0.102-0.26 0.243-0.077 0.504-0.18 0.673-0.264 1.864-0.215 2.592-0.396h0.54c0.122-0.027 0.393 0.029 0.504 0 0.376-0.095 0.939-0.559 1.332-0.72 0.204-0.024 0.408-0.048 0.612-0.072 0.064-0.024 0.385-0.358 0.504-0.432 0.509-0.316 1.08-0.542 1.512-0.936 0.362 0.046 0.363 0.66 0.504 0.936 0.118 0.232 0.3 0.526 0.396 0.756l-0.036 0.108c0.045 0.095 0.2 0.19 0.252 0.288 0.192 0.363 0.255 0.816 0.54 1.08-1e-3 0.098-2e-3 0.165-0.036 0.216-0.098 0.268-0.472 0.372-0.72 0.504-0.543 0.289-1.23 0.905-1.98 1.08l-0.144-0.144c-0.235 0.04-0.392 0.192-0.576 0.288-0.319 0.165-0.683 0.299-1.008 0.432-0.285 0.117-0.557 0.114-0.864 0.216-0.206 0.069-0.415 0.225-0.612 0.288" fill="#2d4454" fill-rule="evenodd"/></g><g transform="translate(26.095 110.8)"><path d="m0 0c-0.044 0.037-0.064 0.138-0.108 0.18-0.163 0.155-0.423 0.356-0.612 0.468-0.477 0.281-1.029 0.409-1.476 0.72-0.165-0.017-0.273-0.044-0.324-0.18-0.298 0.112-0.495 0.55-0.936 0.395-0.225 0.476-0.353 0.249-0.864 0.396-0.294 0.086-0.586 0.332-0.864 0.433l-0.288 0.036c-0.082 0.041-0.173 0.166-0.252 0.216-0.366 0.228-0.961 0.505-1.368 0.648-0.302 0.105-0.558-0.147-0.936 0-0.092 0.036-0.17 0.165-0.252 0.216-0.23 0.143-0.55 0.26-0.792 0.36-0.704 0.291-1.506 0.385-2.303 0.575-0.28 0.067-0.608 0.022-0.864 0-0.094-7e-3 -0.254 0.043-0.288 0.037-0.097-0.037-0.192-0.072-0.288-0.108-0.252 0.05-0.57 0.482-0.936 0.215-0.244-0.023-0.246-0.145-0.36-0.287 4e-3 -0.173 0.031-0.293 0.108-0.396 0.142-0.193 1.602-0.867 1.943-0.9 9e-3 -0.084 8e-3 -0.102 0.037-0.144 0.056-0.046 0.159-0.065 0.215-0.109 0.205 9e-3 0.342 0.054 0.396 0.217l0.613-0.252c0.278-0.072 0.305 0.183 0.539 0.144 0.828-0.139 1.691-0.455 2.341-0.792 0.149-0.078 0.874-0.313 1.079-0.18 0.176 0.06 0.157 0.154 0.252 0.288 0.095 0.055 0.335-0.092 0.432-0.144 0.454-0.241 0.72-0.507 1.044-0.864 0.218-3e-3 0.308 0.023 0.396 0.144 0.246-4e-3 0.493 0.02 0.612-0.108 0.061-0.065 0.057-0.14 0.144-0.18 0.282-0.132 0.527-0.157 0.756-0.324 0.346-0.252 0.518-0.701 1.152-0.576 0.115-0.227 0.939-0.84 1.188-0.936 0.285-0.11 0.644 3e-3 0.792-0.072 0.356-4e-3 0.408 0.072 0.612 0.18-0.03 0.399-0.308 0.488-0.54 0.684" fill="#2d4454" fill-rule="evenodd"/></g><g transform="translate(17.132 108.96)"><path d="m0 0c0.167 0.058 0.269 0.265 0.288 0.468 0.173-0.041 0.336-0.104 0.468 0 0.113 0.04 0.107 0.075 0.18 0.144 1e-3 0.724-1.112 0.616-1.8 0.612-0.179-0.145-0.284-0.223-0.432-0.396 4e-3 -0.091 4e-3 -0.134 0.036-0.18 0.054-0.15 0.944-0.849 1.26-0.648" fill="#2d4454" fill-rule="evenodd"/></g><g transform="translate(20.011 99.245)"><path d="m0 0c-0.036 0.06-0.072 0.12-0.108 0.18-0.136 0.089-0.772 0.251-0.935 0.252-0.144-0.184-0.388-0.291-0.577-0.432-0.234-0.175-0.397-0.451-0.684-0.576-0.566-0.246-1.85-0.292-2.52-0.144-0.396 0.088-0.893 0.023-1.223 0.18-0.036 0.048-0.073 0.096-0.108 0.144-0.235 0.152-0.532 0.165-0.757 0.324-0.048 0.034-0.033 0.096-0.071 0.144-0.171 0.216-0.394 0.201-0.721 0.18-0.258-0.273-0.572-0.517-0.792-0.828-0.157-0.223-0.246-0.523-0.431-0.72-3e-3 -0.298 0.064-0.315 0.179-0.468 0.209-0.013 0.347-0.044 0.54 0.036 0.177 0.073 0.644 0.435 0.865 0.396 0.239-0.043 0.243-0.247 0.396-0.36 0.176-0.131 0.383-0.17 0.575-0.288 0.331-0.202 0.638-0.52 1.08-0.504 0.157-0.324 0.38-0.821 0.648-1.044 0.038-0.029 9e-3 -0.013 0.072-0.036 0.236 0.233 0.627 0.308 0.864 0.54 0.095-7e-3 0.621-0.289 0.648-0.324 0.068-0.083 0.048-0.165 0.144-0.216 0.115-0.061 0.204-0.031 0.289-0.108 0.334 0.027 0.86 0.682 1.079 0.9 0.244 0.243 0.533 0.539 0.828 0.72 0.161 0.099 0.283 0.036 0.504 0.108 0.131 0.043 0.285 0.185 0.396 0.252 0.326 0.198 0.756 0.264 1.044 0.504l0.144 0.252v0.144c-0.258 0.245-0.739 0.74-1.116 0.828-0.084-0.012-0.168-0.024-0.252-0.036" fill="#2d4454" fill-rule="evenodd"/></g><g transform="translate(22.675 113.54)"><path d="m0 0-0.036-0.144h-0.144c0.054 0.09 0.09 0.113 0.108 0.252l0.108-0.108zm0.648 0.324c-0.037 0.139-0.207 0.22-0.36 0.252 3e-3 0.111 5e-3 0.227-0.036 0.288-0.139 0.204-0.617 0.314-0.864 0.396l-0.324 0.036-0.072 0.144c-0.18 0.06-0.36 0.12-0.54 0.18-0.443 0.192-0.885 0.435-1.296 0.648-0.144 0.074-0.334 0.089-0.468 0.18-0.103-0.013-0.155-0.024-0.216-0.072-0.126-0.1-0.109-0.224-0.072-0.396-0.122 0.045-0.127 0.13-0.216 0.18-0.135 0.076-0.285 0.053-0.432 0.108-0.671 0.248-1.44 0.425-2.339 0.468-0.241-0.14-0.508 0.075-0.613-0.216-0.086-0.116-0.083-0.345 0-0.432-0.071-0.06-0.144-0.12-0.216-0.18-0.013-0.165-0.048-0.215 0.037-0.324 0.279-0.397 0.852-0.18 1.296-0.324 0.432-0.141 0.909-0.317 1.367-0.432h0.468c0.349-0.096 0.632-0.334 0.936-0.468 0.211-0.093 0.44-0.122 0.612-0.252 0.147 0.02 0.187 0.047 0.252 0.144 0.38-0.14 1.477-1.032 1.98-0.612 0.12-0.081 0.036-0.231 0.108-0.36 0.089-0.16 0.339-0.201 0.468-0.324 0.231-1e-3 0.303 0.032 0.432 0.108 0.038 0.183-0.063 0.315-0.036 0.468 0.011 0.064 0.104 0.131 0.072 0.252-0.011 0.039-0.088 0.11-0.072 0.18 0.023 0.103 0.191 0.183 0.144 0.36" fill="#ed561c" fill-rule="evenodd"/></g><g transform="translate(15.655 111.23)"><path d="m0 0c-0.093 0.02-0.159 0.035-0.288 0.036-0.108-0.103-0.273-0.166-0.36-0.288-0.064-0.088-0.078-0.205-0.144-0.288 2e-3 -0.305 0.101-0.334 0.216-0.504 0.105-1e-3 0.196-1e-3 0.252 0.036 0.22 0.088 0.291 0.475 0.432 0.648-0.013 0.169-0.054 0.243-0.108 0.36" fill="#ed561c" fill-rule="evenodd"/></g><g transform="translate(19.111 109.76)"><path d="m0 0c0.037-0.029 9e-3 -0.014 0.072-0.036 0.05 0.053 0.117 0.105 0.18 0.144 0.141 0.647-0.175 1.157-0.828 1.152-0.192-0.213-0.23-0.526 0.036-0.72 0.068-0.05 0.176-0.036 0.216-0.108 0.129-0.236 0.035-0.358 0.324-0.432" fill="#ed561c" fill-rule="evenodd"/></g><g transform="translate(14.252 103.35)"><path d="m0 0v-0.072c-0.087 0.047-0.085 0.073-0.108 0.18l0.108-0.108m-2.412-3.6c0.193-0.046 0.496-0.188 0.792-0.108 0.528 0.143 1.531 0.758 1.728 1.224l0.18 1.152c0.12 0.282 0.452 0.424 0.576 0.72 0.091 0.217 0.039 0.436 0 0.612-0.031 0.134 0.063 0.318 0 0.504-0.043 0.127-0.189 0.189-0.252 0.288-0.094 0.146-0.085 0.327-0.18 0.468-0.17 0.251-0.482 0.352-0.72 0.54-0.123-8e-3 -0.184-0.018-0.252-0.072-0.105-0.074-0.138-0.149-0.144-0.324h-0.036c-0.395 0.812-1.269 1.531-2.484 1.512-0.185-0.131-0.459-0.136-0.648-0.252-0.269-0.166-0.534-0.406-0.792-0.576-0.077-0.051-0.195-0.041-0.252-0.108-0.212-0.251-0.501-0.533-0.648-0.828-0.134-0.271-0.059-0.515-0.288-0.684 0.015-0.525 0.399-1.464 0.648-1.8l0.504-0.504c0.084-0.063 0.278-0.126 0.324-0.216v-0.216c0.183-0.513 0.686-1.096 1.188-1.296 0.206-0.082 0.506 0.024 0.756-0.036" fill="#ed561c" fill-rule="evenodd"/></g><g transform="translate(25.303 104.32)"><path d="m0 0c-0.028 0.113 0.045 0.141-0.036 0.252-0.301 0.454-1.276 0.597-1.764 0.9-0.284 0.177-0.432 0.47-0.9 0.468-0.12-0.123-0.3-0.017-0.504-0.072-0.144-0.039-0.306-0.176-0.432-0.216h-0.36c-0.168-0.054-0.264-0.265-0.396-0.324-0.189-0.085-0.392 0.023-0.54-0.072-0.37-0.237-0.571-1-0.432-1.62 0.039-0.174-7e-3 -0.314 0.072-0.432v-0.108h-0.036c-0.093 0.283-0.36 0.378-0.504 0.612-0.431-0.015-0.41-0.418-0.72-0.576 0.018-0.661 0.864-1.665 1.224-2.052 0.211 0.017 0.216 0.076 0.324 0.18 0.153-0.378 0.388-1.384 0.684-1.548 0.112-0.061 0.172 0.035 0.252 0 0.036-0.048 0.072-0.096 0.108-0.143 0.276-0.178 1.396-0.302 1.656-0.145 0.376-0.188 0.777 0.132 1.08 0.252 0.084 0.012 0.168 0.024 0.252 0.036 0.318 0.127 0.423 0.389 0.612 0.648 0.076 0.105 0.259 0.132 0.324 0.252 0.167 0.31 0.169 0.793 0.252 1.152v0.504c0.144 0.429 0.161 1.139 0 1.62-0.045 0.135-0.186 0.312-0.216 0.432" fill="#ed561c" fill-rule="evenodd"/></g><g transform="translate(19.723 92.261)"><path d="m0 0h0.504c0.533 0.116 0.999 0.026 1.224-0.36 0.105-1e-3 0.196-1e-3 0.251 0.036 0.256 0.103 0.367 0.59 0.541 0.792 0.168 0.197 0.398-0.064 0.504 0.432 0.036 0.065 9e-3 0.065 0 0.18l-0.036 0.036c-0.093 0.02-0.159 0.035-0.288 0.036-0.141-0.124-0.474-0.212-0.612-0.036-0.506-0.012-0.555-0.449-0.936-0.576-0.105-0.035-0.275 0.026-0.324 0.036-0.275 0.058-1.221-0.023-1.332-0.108-0.138-0.048-0.162-0.128-0.252-0.216 3e-3 -0.166 0.026-0.222 0.072-0.324 0.263-0.098 0.422 0.01 0.684 0.072" fill="#ed561c" fill-rule="evenodd"/></g><g transform="translate(12.92 89.525)"><path d="m0 0c0.446 0.368 0.607 1.171 0.576 1.8l-0.216 0.036c-0.088-0.09-0.357-0.325-0.576-0.252-0.077 0.026-0.112 0.152-0.288 0.108-0.084-0.021-0.349-0.119-0.432-0.144-0.168-0.051-0.255 0.015-0.36-0.072-0.318-0.12-0.418-0.779-0.288-1.044 0.318-0.059 0.705 0.024 1.044-0.108 0.204-0.079 0.252-0.264 0.54-0.324" fill="#ed561c" fill-rule="evenodd"/></g><g transform="translate(21.969 109.76)"><path d="m0 0c-0.083-0.029-0.097-0.077-0.151-0.129 0.014-0.213 0.135-0.378 0.194-0.562 0.033-0.101 0.014-0.221 0.065-0.302 2e-3 -0.197-0.05-0.183-0.129-0.281-0.322 0.049-0.961 0.105-1.188 0.259-0.081 0.055-0.135 0.159-0.195 0.238-0.072 0.065-0.144 0.129-0.216 0.194-0.178 0.18-0.309 0.341-0.54 0.475 0.014 0.038 4e-3 0.021 0.022 0.044 8e-3 0.081 0.016 0.08 0.043 0.129 0.299-2e-3 0.538-0.028 0.713-0.151 0.106-0.075 0.136-0.196 0.28-0.238 0.028-0.016 0.021-1e-3 0.087 0 0.015 0.027 0.023 0.045 0.043 0.065-0.019 0.146-0.087 0.265-0.173 0.345 0.032 0.192 0.175 0.209 0.303 0.303 0.172 0.125 0.288 0.341 0.432 0.497h0.108c0.244-0.309 0.649-0.418 1.036-0.583-1e-3 -0.41-0.499-0.139-0.734-0.303m-5.616-0.216c-0.096 0.047-0.165-0.029-0.259 0l-0.129 0.108c0.015 0.297 0.376 0.368 0.626 0.432 0.083 0.021 0.18-0.011 0.237 0.022 0.491-2e-3 0.85-0.11 1.102-0.346-5e-3 -0.05-4e-3 -0.061-0.022-0.086-0.063-0.156-0.212-0.087-0.367-0.151-0.153-0.064-0.218-0.239-0.345-0.325l-0.173-0.064c-0.421 2e-3 -0.402 0.281-0.67 0.41m6.458-2.57c0.056-0.202 2e-3 -0.642-0.086-0.756-0.109-0.305-0.948-0.183-1.296-0.281-0.089-0.025-0.196-0.089-0.302-0.108-0.131-0.023-0.277 0.074-0.367 0.108-0.523 0.199-0.683 0.725-1.102 1.015-0.147 0.102-0.393 0.161-0.497 0.303-0.087 0.118-0.064 0.285-0.13 0.432-0.057 0.065-0.115 0.129-0.172 0.194h-0.151c-0.051-0.043-0.101-0.086-0.152-0.129-0.021-0.058-0.043-0.116-0.065-0.173-0.034-0.048-0.112-0.06-0.15-0.108-0.149 0.039-0.26 0.145-0.39 0.194-0.263 0.099-0.641 0.058-0.798 0.259-0.061 0.078-0.195 0.315-0.108 0.454v0.324c0.052 0.131 0.19 0.14 0.302 0.216l0.324 0.324c0.122 0.029 0.245 0.058 0.367 0.086 0.077 0.033 0.126 0.109 0.194 0.151 0.045 0.181 0.056 0.392-0.043 0.54-0.309 0.463-1.854 0.574-2.289 0.152-0.112-0.109-0.45-0.471-0.26-0.713 0.046-0.13 0.235-0.294 0.433-0.26 0.024 5e-3 0.114 0.041 0.172 0.022v-0.022c0.134-0.059 0.156-0.162 0.26-0.237 0.072-0.053 0.186-0.053 0.259-0.108 0.037-0.028 0.049-0.078 0.064-0.13 0.03-0.072-0.079-0.212-0.108-0.302-0.046-0.147 0.047-0.282 0-0.432-0.086-0.277-0.393-0.323-0.583-0.497-0.186 4e-3 -0.313 0.125-0.389 0.238-0.265-0.035-0.368-0.35-0.431-0.583-0.037-0.136 0.04-0.333 0.021-0.432-0.041-0.218-0.369-0.507-0.475-0.713-0.104-0.203-0.065-0.514-0.194-0.691-0.033-0.093-0.09-0.094-0.152-0.152-0.188 0.027-0.35 0.127-0.54 0.173-0.263 0.064-0.483-0.142-0.648-0.021-0.13 0.062-0.177 0.253-0.259 0.367-0.214 0.298-0.521 0.501-0.756 0.777 0.015 0.48 0.475 0.824 0.864 0.93h0.411c0.24 0.021 0.539 0.044 0.713 0.15 0.364 0.224 0.503 0.902 0.82 1.21-9e-3 0.097-0.032 0.107-0.065 0.173-0.313-2e-3 -0.665-0.618-0.799-0.843-0.05-6e-3 -0.054-0.01-0.086-0.021-0.025 0.025-0.055 0.046-0.087 0.064-0.021 0.094-0.043 0.188-0.064 0.281 0.077 0.369 0.472 0.645 0.734 0.843 0.144 0.151 0.288 0.302 0.432 0.454 0.043 0.028 0.086 0.057 0.13 0.086 0.033 0.042 0.032 0.086 0.064 0.129 0.051 0.044 0.101 0.087 0.151 0.13 0.095 0.156 0.138 0.395 0.281 0.497 0.131 0.093 0.319 0.1 0.454 0.194 0.697-0.01 1.676-0.199 2.074-0.497 0.21-0.157 0.304-0.471 0.518-0.626 0.202-0.147 0.588-0.116 0.799-0.259 0.385-0.262 0.614-0.703 1.015-0.951 0.378-0.233 1.043-0.164 1.404-0.41 0.253-0.171 0.644-0.689 0.734-1.015m1.642-2.03c0.302-0.182 0.65-0.255 0.821-0.562 0.22-0.398 0.113-0.989 0.086-1.49-0.022-0.414 0.104-0.808 0-1.232-0.303-1.23-0.619-1.739-1.793-2.116-0.39-0.125-0.979-0.016-1.296 0.065-0.261 0.067-0.478 0.075-0.712 0.172-0.673 0.282-0.979 0.833-1.21 1.556-0.099 0.311 0.088 0.726 0 1.058-0.181 0.684-0.48 1.434-0.172 2.181 0.152 0.372 0.747 0.76 1.144 0.886 0.234 0.074 0.483 0.031 0.669 0.151 1.057-3e-3 1.8-0.272 2.463-0.669m-1.231 1.382c0.044 9e-3 0.041 5e-3 0.065 0.021 0.235-0.037 0.338-0.308 0.475-0.453-0.012-0.069-0.019-0.063-0.043-0.108-0.185 0-0.347 0.034-0.476 0.108-0.058 0.033-0.078 0.129-0.129 0.173 0.016 0.127 0.057 0.178 0.108 0.259m-3.413-4.687c-0.176 9e-3 -0.211 0.124-0.302 0.216-0.225 0.226-0.473 0.534-0.583 0.864-0.115 0.343 0.065 0.749 0.302 0.821 0.03 0.019 0.121 0.024 0.151 0.043 0.094-0.038 0.213-0.092 0.259-0.173 0.05-0.087 0.013-0.17 0.043-0.281 0.076-0.269 0.162-0.579 0.238-0.864 0.067-0.248-0.031-0.512-0.108-0.626m-0.54-2.462c0.427-0.132 0.887-0.335 1.253-0.541 0.103-0.057 0.4-0.169 0.302-0.345-0.072-0.153-0.311-0.194-0.453-0.281-0.342-0.209-0.66-0.387-1.037-0.583-0.48-0.249-0.864-0.648-1.231-1.015-0.113-0.113-0.217-0.274-0.346-0.367-0.053-0.038-0.122-0.047-0.173-0.087-0.261 0.035-0.93 0.537-0.993 0.757-0.041 0.142 0.036 0.305 0.022 0.453-0.027 0.014-0.045 0.024-0.065 0.043-0.313-0.026-0.225-0.432-0.389-0.605-0.108-0.113-0.294-0.131-0.432-0.216-0.151-0.092-0.263-0.25-0.454-0.302-0.024 0.026-0.054 0.047-0.086 0.065-0.091 0.238-0.062 0.454-0.195 0.648-0.239 0.351-0.742 0.371-1.101 0.605-0.284 0.185-0.544 0.489-0.864 0.626-0.491 0.209-1.209-0.156-1.447-0.41-0.045 8e-3 -0.042 5e-3 -0.065 0.021-0.022 7e-3 -0.043 0.014-0.065 0.022 4e-3 0.337 0.156 0.484 0.281 0.691 0.075 0.124 0.091 0.275 0.173 0.389 0.072 0.064 0.144 0.129 0.216 0.194 0.129 0.172 0.267 0.301 0.411 0.454 0.294-0.01 0.349-0.16 0.518-0.281 0.185-0.133 0.401-0.265 0.605-0.367 0.351-0.177 0.738-0.282 1.166-0.389 0.206-0.052 0.399 0.057 0.561 0 0.125-0.044 0.209-0.177 0.346-0.216 0.228-0.065 0.53 0.027 0.691 0.065 0.474 0.109 0.968 0.114 1.383 0.281 0.103 0.041 0.189 0.158 0.28 0.215 0.066 0.042 0.131 0.043 0.195 0.087 0.182 0.125 0.298 0.397 0.518 0.475 0.099 0.06 0.361-0.051 0.475-0.086m2.679-1.534c0.45-0.315 1.576-0.971 1.274-1.771-0.094-0.248-0.389-0.564-0.627-0.67-0.181-0.08-0.37-0.106-0.518-0.215-0.102-0.076-0.14-0.22-0.216-0.325-0.102-0.141-0.368-0.237-0.54-0.302-0.325-0.122-0.69-0.132-1.058-0.216-0.133-0.03-0.326 2e-3 -0.432-0.022-0.17-0.037-0.403-0.025-0.475 0.044-0.072 0.097 0 0.39 0.043 0.518 0.068 0.204 0.095 0.353 0.259 0.454 0.079 0.048 0.161 0.029 0.259 0.064 0.237 0.087 0.594 0.246 0.67 0.497 0.032 0.06-0.066 0.122-0.108 0.173-0.31-0.026-0.474-0.229-0.735-0.302-0.473-0.134-1.165 0.15-1.425 0.324 0 0.326 0.405 0.606 0.605 0.756 0.52 0.388 1.164 0.714 1.728 1.058 0.189 0.115 0.41 0.17 0.583 0.302 0.349-1e-3 0.505-0.221 0.713-0.367m-2.765-4.082c0.032 0.03 0.063 0.07 0.086 0.108 0.583 0.135 1.769 0.05 2.16 0.345h0.108c0.027-0.034 0.045-0.044 0.086-0.064 0.014-0.038 5e-3 -0.022 0.022-0.044 0.018-0.627-0.681-0.699-1.188-0.82-0.117-0.029-0.533-0.066-0.605-0.022-0.343-5e-3 -0.436-0.012-0.626 0.13-0.017 0.124-0.045 0.213-0.043 0.367m3.153-0.454h0.195l0.021-0.021c-5e-3 -0.245-0.153-0.212-0.281-0.324-0.231-0.204-0.379-0.501-0.604-0.713-0.192 0.016-0.287 0.133-0.432 0.194-0.391 0.165-1.036 0.309-1.534 0.152-0.13-0.042-0.259-0.01-0.345-0.087-0.09 0.016-0.111 0.049-0.173 0.087-1e-3 0.15 0.062 0.225 0.173 0.259 0.194 0.123 0.849-0.041 1.123 0.022 0.386 0.087 0.702 0.203 1.015 0.345 0.081-0.081 0.136-0.15 0.194-0.259 0.037-0.014 0.021-4e-3 0.043-0.022 0.124 8e-3 0.525 0.291 0.605 0.367m0.519-0.475c0.072 0.037 0.156 0.023 0.216 0.065 0.103 2e-3 0.183 1e-3 0.237-0.043 0.194-0.065 0.48-0.502 0.324-0.821-0.052-0.106-0.177-0.199-0.259-0.281-0.072-0.079-0.144-0.158-0.216-0.237-0.292-0.211-0.862-0.209-1.209-0.043-0.013 0.027-0.026 0.065-0.044 0.086 0.032 0.09 0.123 0.115 0.151 0.194v0.173c0.026 0.102 0.076 0.236 0.13 0.324 0.14 0.226 0.428 0.462 0.67 0.583m-1.037-1.274c-0.261-0.045-0.404 0.072-0.583 0.151-0.365 0.16-0.735 0.372-1.253 0.302-0.127-0.017-0.302 0.041-0.41-0.043h-0.087c7e-3 0.036 0.015 0.072 0.022 0.108h-0.087c0.095 0.075 0.211 0.067 0.346 0.108 0.819 0.25 1.537-0.297 2.074-0.561-8e-3 -0.022-0.015-0.043-0.022-0.065m-8.294 3.089c0.011-0.304 0.329-0.702 0.237-1.059-0.121-0.472-0.638-0.983-0.95-1.296-0.101-0.101-0.308-0.287-0.497-0.281-0.949 0.03-1.142 0.817-1.425 1.512-0.109 0.269-0.253 0.842-0.022 1.124 0.017 0.014 0.048 0.028 0.065 0.042 0.178-0.038 0.227-0.245 0.346-0.345 0.144-0.121 0.359-0.173 0.496-0.302 0.179-1e-3 0.185 0.042 0.281 0.108-0.024 0.294-0.614 0.488-0.756 0.82-0.356 0.835-0.136 1.5 0.238 2.117 0.106 0.175 0.141 0.38 0.302 0.497 0.136 0.099 0.315 0.195 0.475 0.259 0.059 0.024 0.127 0.013 0.173 0.043 0.603-7e-3 0.713-0.346 1.08-0.561 0.295-0.173 0.667-0.239 0.95-0.432 0.069-0.047 0.106-0.144 0.173-0.195 0.06-0.835-0.707-1.572-1.166-2.051m0.173-4.147c-0.072 7e-3 -0.037 5e-3 -0.108 0l-0.022 0.021c0 0.117 5e-3 0.237 0.022 0.324 0.069-0.034 0.044-0.03 0.129-0.022 7e-3 -7e-3 0.015-0.014 0.022-0.021 0-0.139-0.027-0.204-0.043-0.302m-0.324 1.252c-0.163-0.117-0.33-0.087-0.562-0.151-0.121-0.034-0.242-0.12-0.345-0.151-0.152-7e-3 -0.303-0.014-0.454-0.022-0.147-7e-3 -0.467-0.102-0.562-0.043-0.276 0.015-0.294 0.258-0.432 0.41-1e-3 0.094 0 0.197 0.022 0.26 0.037 0.013 0.021 4e-3 0.043 0.021 0.183-0.025 0.37-0.286 0.562-0.367 0.758-0.32 1.51 0.147 1.814 0.669 0.045-8e-3 0.042-5e-3 0.065-0.021 0.277-0.103-0.046-0.529-0.151-0.605m-0.173-1.058c-0.076-0.232-0.019-0.528-0.13-0.734-0.022-0.042-0.098-0.068-0.129-0.108-0.188 0.023-0.333 0.16-0.497 0.215-0.175 0.06-0.485 0.023-0.626 0.108-0.105-1e-3 -0.23-3e-3 -0.303 0.022 0 0.072 6e-3 0.129 0.022 0.173 0.269-3e-3 0.628-0.033 0.799 0.065 0.014 0.037 4e-3 0.021 0.022 0.043-0.023 0.216-0.325 0.254-0.562 0.237-0.043-6e-3 -0.086-0.014-0.13-0.021-0.038 0.011-0.092 0.066-0.129 0.086 0.067 0.373 0.543 0.17 0.907 0.26 0.193 0.047 0.517 0.084 0.67 0.194h0.129c0.028-0.045 0.046-0.049 0.065-0.108 0.043-0.094-0.075-0.332-0.108-0.432m-1.015-2.786c-0.129-0.042-0.431-0.164-0.584-0.044h-0.043c0.039 0.294 0.395 0.227 0.627 0.325 0.395 0.166 0.683 0.456 0.929 0.777h0.086l0.021-0.022c0.01-0.655-0.542-0.875-1.036-1.036m-1.577 0.864v0.367c0.154 0.161 0.241 0.372 0.432 0.496 0.141 0.093 0.39 0.095 0.518 0.173 0.556-0.024 0.984-0.143 1.253-0.453-0.031-0.42-0.797-0.814-1.166-0.929-0.415-0.129-0.949 0.085-1.037 0.346m4.341 15.443c0.022-0.094 0.043-0.188 0.065-0.281 0.063-0.175 0.153-0.565 0.065-0.821-0.062-0.178-0.204-0.328-0.324-0.453-0.089 0.016-0.11 0.049-0.173 0.086-0.153 0.73-0.424 1.857-0.928 2.203 2e-3 0.106 0.022 0.123 0.043 0.195 0.05 4e-3 0.061 4e-3 0.086 0.021 0.529 2e-3 1.005-0.575 1.166-0.95m0.26-5.097c-0.011-0.098-0.029-0.093-0.065-0.152-0.67 7e-3 -1.039 0.187-1.469 0.411-0.142 0.074-0.3 0.112-0.411 0.216-0.023 0.029-0.033 0.062-0.043 0.108 0.055 0.053 0.117 0.097 0.173 0.151 0.263-0.028 0.596-0.375 0.864-0.475 0.21-0.079 0.556-0.046 0.713-0.151 0.138-8e-3 0.155-0.055 0.238-0.108m2.44 0.172c-0.012-0.143-0.071-0.171-0.129-0.259-0.494-0.11-0.986-0.335-1.555-0.324-0.058 0.055-0.148 0.086-0.195 0.151-0.03 0.042-0.033 0.093-0.065 0.13 8e-3 0.315 0.249 0.193 0.497 0.259 0.273 0.073 0.619 0.129 0.886 0.194 0.15 0.038 0.263-3e-3 0.367 0.065 0.082-0.027 0.101-0.076 0.173-0.108 2e-3 -0.054 2e-3 -0.08 0.021-0.108m0.778 0.454v-0.043c-0.101-0.107-0.147-0.249-0.303-0.303-0.029 0.029-0.068 0.047-0.108 0.065 0.016 0.097 0.051 0.122 0.087 0.194 0.086 0.022 0.202 0.054 0.259 0.109 0.022-8e-3 0.043-0.015 0.065-0.022m0.518 2.397c0-0.058-1e-3 -0.098-0.021-0.129-0.056-0.157-0.504-0.391-0.778-0.324-0.304 0.074-0.633 0.314-0.821 0.518-0.153-4e-3 -0.152-0.049-0.237-0.108 0.031-0.438 0.46-0.569 0.799-0.713 0.105-0.045 0.253-0.166 0.432-0.129 0.231 0.047 0.415 0.142 0.626 0.194 0.023-0.017 5e-3 -8e-3 0.044-0.021 0.082-0.434-0.354-0.661-0.541-0.907-0.11-0.147-0.227-0.343-0.388-0.433-0.369-0.206-0.988-0.158-1.426-0.302-0.356-0.117-0.944-0.237-1.361-0.151h-0.41c-0.28 0.065-0.647 0.133-0.864 0.281-0.042 0.028-0.133 0.126-0.108 0.215 6e-3 0.021 0.589 0.53 0.626 0.54 0.105 0.064 0.212-0.128 0.281-0.172 0.113-0.072 0.452-0.133 0.648-0.086 0.315 0.075 0.652 0.205 0.972 0.28 0.374 0.089 0.791-0.042 1.102-0.065 0.035 0.038 0.08 0.063 0.129 0.087-0.021 0.286-0.666 0.474-1.058 0.389-0.158-0.035-0.368-0.029-0.54-0.087-0.203-0.068-0.664-0.322-0.972-0.237-0.197 0.054-0.287 0.197-0.41 0.324 0 0.059 0 0.099 0.021 0.129 0.013 0.135 0.069 0.139 0.13 0.216 0.17-6e-3 0.278-0.056 0.41-0.086 0.158-0.037 0.297 0.037 0.41 0.065 0.451 0.109 0.825 0.306 1.037 0.648 0.022 0.064 0.043 0.129 0.065 0.194-3e-3 0.153-0.05 0.171-0.108 0.259-0.267-0.01-0.275-0.167-0.389-0.324-0.193-0.266-0.73-0.59-1.253-0.432-0.13 0.04-0.174 0.114-0.258 0.194 0.048 0.233 0.43 0.419 0.561 0.627 0.363 0.58 0.21 1.071 0.065 1.728 0.026 0.024 0.046 0.054 0.065 0.086 0.243-0.099 0.475-0.171 0.69-0.302 0.219-0.134 0.358-0.359 0.562-0.497 0.326-0.22 0.863-0.252 1.274-0.108 0.126 0.044 0.293 0.053 0.39 0.13 0.12-3e-3 0.127-0.023 0.194-0.065-7e-3 -0.158-0.015-0.317-0.022-0.475 0.076-0.325 0.223-0.744 0.432-0.951m0.67 2.225c-8e-3 -0.156-0.074-0.16-0.151-0.238-0.141 8e-3 -0.12 0.049-0.195 0.108 0.028 0.139 0.148 0.181 0.216 0.281h0.065c0.029-0.035 0.013-0.025 0.065-0.043 2e-3 -0.067 0.013-0.087 0-0.108m-0.497 2.289c4e-3 0.117 0.029 0.181 0.065 0.26 0.027 0.012 0.065 0.025 0.086 0.043 0.084-0.029 0.126-0.086 0.195-0.13 0.013-0.037 4e-3 -0.021 0.021-0.043-8e-3 -0.152-0.063-0.135-0.129-0.216-0.142 3e-3 -0.158 0.035-0.238 0.086m-0.475 0.044c-7e-3 -8e-3 -0.014-0.015-0.022-0.022v0.022c-0.132 0.013-0.158 0.071-0.237 0.129 2e-3 0.279 0.173 0.363 0.28 0.54 0.044-0.014 0.087-0.029 0.13-0.043 6e-3 -0.102 0.05-0.227 0-0.303 8e-3 -0.208-0.022-0.256-0.151-0.323m-1.425 0.583h0.043v-0.086h-0.043zm-0.325 0.497c0.142 9e-3 0.284-0.067 0.195-0.194-0.04-0.082-0.127-0.08-0.195-0.13-0.083 0.013-0.096 0.032-0.151 0.065-9e-3 0.18 0.041 0.159 0.151 0.259m-0.54-0.757c0.013 0.132 0.06 0.109 0.13 0.173h0.13l0.043-0.043c-2e-3 -0.165-0.049-0.142-0.13-0.216-0.087 9e-3 -0.085 0.024-0.151 0.044-0.014 0.037-4e-3 0.021-0.022 0.042m-0.691 0.217h0.13c0.156-0.24 0.433-0.474 0.238-0.821-0.06 0-0.1 1e-3 -0.13 0.021-0.142 0.059-0.327 0.563-0.238 0.8m-0.281-0.886c0.027 0.015 0.045 0.024 0.065 0.044 0.05-5e-3 0.061-5e-3 0.086-0.022 0.022-7e-3 0.044-0.015 0.065-0.022-8e-3 -0.099-0.024-0.111-0.086-0.151-7e-3 -7e-3 -0.015-0.014-0.021-0.022-0.034 0.051-0.065 0.063-0.087 0.13-0.017 0.022-8e-3 5e-3 -0.022 0.043m0.627-0.475c0.285 0.147 0.316 0.515 0.561 0.691 0.125 0.09 0.324 0.082 0.454 0.173 0.425-4e-3 0.671-0.095 0.972-0.195 0.1-0.021 0.202-0.043 0.302-0.065 0.181-0.079 0.324-0.247 0.54-0.302 0.504-0.128 0.642 0.244 0.972 0.259 0.19-0.206 0.362-0.452 0.626-0.583 0.014-0.037 5e-3 -0.021 0.022-0.043-8e-3 -0.223-0.152-0.208-0.28-0.302-0.109-0.108-0.217-0.216-0.325-0.324-0.19-0.12-0.414-0.164-0.583-0.303-0.065-0.053-0.112-0.155-0.173-0.216-0.296-0.296-0.606-0.595-1.036-0.755-0.115-0.015-0.231-0.029-0.346-0.044-0.789-0.193-1.205 0.549-1.793 0.778-0.326 0.126-0.723 0.152-0.993 0.324-7e-3 0.183 0.165 0.673 0.259 0.842 0.249 0.096 0.532-0.083 0.821 0.065m-4.817-5.918c-0.426 0.172-0.675 0.642-0.929 0.993-0.11 0.153-0.265 0.29-0.367 0.454-0.049 0.079-0.055 0.165-0.108 0.238-0.294 0.408-0.686 0.693-0.928 1.166-0.094 0.182-0.352 0.791-0.281 1.08 0.236 0.968 1.141 1.813 1.9 2.268 0.136 0.081 0.426 0.061 0.54 0.129 0.361 3e-3 0.793 0.041 1.08-0.064 0.192-0.071 0.582-0.421 0.691-0.584 0.117-0.173 0.15-0.384 0.26-0.561 0.15-0.244 0.39-0.429 0.54-0.67 0.316-0.51 0.365-1.144 0.561-1.792 0.117-0.386 0.208-1.043 0.044-1.469-0.106-0.275-0.659-0.778-0.93-0.886-0.279-0.112-0.597-0.193-0.885-0.281-0.146-0.044-1.049-0.077-1.188-0.021m-1.512 0.712c-0.521 1e-3 -0.834 0.165-1.252 0.281-0.33 0.091-0.649 0.109-0.821 0.346-0.374 0.515-0.063 1.877 0.129 2.376 0.155 0.402 0.386 0.77 0.605 1.101 0.079 0.12 0.066 0.244 0.129 0.389 0.046 0.104 0.147 0.211 0.217 0.303 0.107 0.141 0.481 0.504 0.626 0.604 0.19 0.132 0.403 0.228 0.54 0.41 0.079 0.106 0.187 0.225 0.238 0.346 0.021 0.094 0.043 0.188 0.065 0.281 0.031 0.069 0.112 0.132 0.15 0.194 0.08 0.129 0.091 0.28 0.173 0.411 0.076 0.121 0.173 0.243 0.26 0.367 0.093 0.133 0.404 0.411 0.561 0.475 0.11 0.045 0.265 0.017 0.346 0.087h0.367c0.036-0.044 0.072-0.087 0.108-0.13v-0.389c0.052-0.209 0.157-0.331 0.151-0.604-0.174-0.165-0.315-0.739-0.475-0.8-0.196-0.121-0.692 0.036-0.951-0.021-0.222-0.05-0.495-0.102-0.669-0.217-0.598-0.393-1.047-0.808-1.469-1.381l-0.259-0.26c-0.067-0.094-0.056-0.183-0.108-0.302-0.034-0.077-0.125-0.179-0.151-0.259-0.267-0.81 0.322-1.817 0.626-2.225 0.13-0.122 0.259-0.245 0.389-0.367 0.191-0.263 0.333-0.594 0.561-0.821-9e-3 -0.115-0.041-0.125-0.086-0.195m4.946 9.828c-0.035-0.043-0.072-0.086-0.108-0.129-0.203-3e-3 -0.237 0.035-0.345 0.108-0.079 0.406 0.18 0.962 0.41 1.123 0.088 0.061 0.204 0.08 0.281 0.151h0.216c0.024-0.026 0.055-0.046 0.086-0.065-0.035-0.167-0.178-0.184-0.28-0.281-0.262-0.248-0.361-0.479-0.26-0.907m0.648 0.194c-0.019-0.114-0.084-0.151-0.194-0.172-0.058 0.062-0.113 0.133-0.173 0.194 5e-3 0.378 0.263 0.418 0.475 0.583 0.084-2e-3 0.129-7e-3 0.173-0.043 0.032-0.026 0.039-0.056 0.065-0.087-0.016-0.049-0.023-0.047-0.043-0.085-0.067-2e-3 -0.137-4e-3 -0.173 0.021-0.11-6e-3 -0.11-0.025-0.173-0.065-0.02-0.1-0.016-0.259 0.043-0.346m3.931 0.627c1e-3 0.067 8e-3 0.111 0.022 0.151 0.519 0.017 0.63-0.207 0.756-0.583 0.028-0.082 0.135-0.281 0.108-0.389-0.02-0.079-0.136-0.126-0.194-0.173-0.13 6e-3 -0.142 0.038-0.217 0.087-0.082 0.444-0.121 0.739-0.475 0.907m-0.367-0.454c-0.075 0.015-0.114 0.026-0.173-0.021-0.061 2e-3 -0.092 9e-3 -0.129 0.021-0.014 0.038-4e-3 0.022-0.022 0.044 0.023 0.118 0.082 0.109 0.151 0.173 0.618 0.014 0.664-0.272 0.648-0.886-0.025-0.025-0.046-0.055-0.064-0.087-0.038-0.014-0.022-4e-3 -0.044-0.021-0.211 0.022-0.254 0.244-0.367 0.367 0.011 0.206 0.089 0.259 0 0.41m-6.048-1.836c0.122 0.289 0.321 0.863 0.325 1.145 3e-3 0.284-0.194 0.579 0.042 0.756-4e-3 0.05-3e-3 0.061-0.021 0.087-0.025 0.064-0.05 0.06-0.086 0.108-0.348-9e-3 -0.722-0.128-0.994 0.064-0.035 0.025-0.049 0.08-0.086 0.108 4e-3 0.05 4e-3 0.061 0.021 0.087 0.087 0.243 0.523 0.18 0.756 0.281 0.18 0.076 0.25 0.238 0.389 0.345-0.012 0.12-0.059 0.14-0.108 0.216-0.251-8e-3 -0.351-0.163-0.54-0.238-0.207-0.082-0.42-8e-3 -0.583-0.108-0.151-0.092-0.443-0.472-0.561-0.626-0.128-0.165-0.354-0.257-0.519-0.389h-0.086c-0.015 0.038-5e-3 0.022-0.022 0.044 0.048 0.258 0.294 0.425 0.389 0.648 0.254 0.593 0.531 1.129 1.08 1.425 0.161 0.087 0.399 0.26 0.691 0.151 0.195-0.072 0.465-0.266 0.605-0.41 0.104 0.011 0.109 0.042 0.194 0.065-0.014 0.126-0.058 0.126-0.065 0.259 0.032 0.03 0.063 0.07 0.087 0.108 0.149-1e-3 0.156-0.032 0.237-0.087-0.011-0.171-0.098-0.234-0.237-0.28 0.016-0.146 0.107-0.165 0.172-0.26 0.314 0.035 0.692 0.638 1.037 0.756 0.221 0.076 0.45-0.065 0.562-0.172 0.309-0.297 0.433-0.706 0.691-1.059 0.091-0.125 0.258-0.173 0.367-0.281 0.154 3e-3 0.155 0.047 0.238 0.108-0.018 0.291-0.261 0.342-0.389 0.519-0.24 0.332-0.264 0.786-0.605 1.015 0.01 0.08 0.012 0.064 0.043 0.108 0.385-6e-3 0.706-0.143 0.994-0.238 0.561-0.185 1.096-0.316 1.598-0.539 0.015-0.051 0.029-0.101 0.043-0.152-0.164-0.153-0.228-0.357-0.367-0.54 0.013-0.12 0.058-0.12 0.108-0.194 0.195 0.033 0.27 0.173 0.367 0.302 0.219 0.29 0.887 0.896 1.448 0.627 0.134-0.065 0.265-0.179 0.367-0.281 0.087-0.087 0.14-0.18 0.216-0.281 0.046-0.061 0.127-0.086 0.173-0.151 0.08 0.01 0.28 0.06 0.302 0.108 0.051-0.023 0.095-0.069 0.13-0.108 0.105 0.014 0.196 0.064 0.28 0.086 0.151 0.04 0.361-0.015 0.454-0.043 0.145-0.043 0.292-0.038 0.41-0.108 0.344-0.203 0.558-0.596 0.886-0.821 0.19-0.13 0.461-0.169 0.669-0.28-5e-3 -0.316-0.459-0.382-0.82-0.303-0.599 0.131-0.924 0.3-1.275 0.67-0.077-9e-3 -0.113-0.019-0.151-0.065-0.173 0.028-0.172 0.144-0.302 0.194-0.037 0.019-0.067 0.011-0.108-0.021-0.113-0.105-0.056-0.397-0.13-0.54-0.083-0.161-0.303-0.186-0.432-0.303-0.385 0.015-0.333 0.582-0.496 0.821-0.179 0.261-0.746 0.615-1.21 0.389-0.309-0.15-0.616-0.457-0.799-0.734-0.319 2e-3 -0.561 0.111-0.756 0.237-0.023 0.1-0.037 0.247 0.021 0.324 5e-3 0.136-7e-3 0.185-0.108 0.216-0.022 0.018-5e-3 8e-3 -0.043 0.022-0.154-0.163-0.185-0.308-0.302-0.497-0.224-0.051-0.437 0.061-0.692 0.021-0.132-0.02-0.253-0.097-0.367-0.021-0.111 0.074-0.118 0.255-0.194 0.367-0.128 0.189-0.579 0.519-0.993 0.411-0.527-0.138-1.265-1.232-0.821-1.88 0.137-0.201 0.499-0.157 0.712-0.28-0.031-0.149-0.169-0.191-0.259-0.281-0.167-0.166-0.637-0.577-0.712-0.778-0.111-0.295 0.17-0.645 0.043-0.82-0.06-0.084-0.153-0.093-0.303-0.087-0.05 0.043-0.101 0.087-0.151 0.13 0.029 0.205 0.087 0.427 0.173 0.605 0.156 0.32 0.409 0.507 0.13 0.971-0.356-0.01-0.147-0.251-0.217-0.475-0.064-0.206-0.242-0.351-0.323-0.54-0.055-0.126-0.038-0.292-0.108-0.41 7e-3 -0.188-0.016-0.302-0.152-0.346-0.058-0.025-0.114 0.029-0.173 0.065-0.188 0.466 0.083 0.741 0.216 1.058m2.053 4.731c-0.016-0.152-0.346-0.276-0.476-0.324-0.036 0.036-0.072 0.072-0.108 0.107 0.033 0.185 0.17 0.242 0.281 0.346 0.161-7e-3 0.207-0.066 0.303-0.129m-0.973 0.712c-0.141 0.074-0.286 0.079-0.432 0.152-0.332 0.165-0.702 0.36-1.036 0.518 0 0.129 0.02 0.146 0.065 0.216 0.054 2e-3 0.08 3e-3 0.107 0.021 1.115-5e-3 2.122-0.167 2.981-0.453 0.137-0.022 0.274-0.043 0.411-0.065 0.449-0.136 0.975-0.162 1.425-0.324 0.503-0.181 1.018-0.419 1.512-0.604 0.24-0.091 0.442-0.088 0.67-0.173 0.446-0.167 0.925-0.384 1.36-0.562 0.177-0.072 0.32-0.079 0.497-0.151 0.354-0.145 0.702-0.379 1.059-0.519 0.462-0.182 0.983-0.29 1.382-0.54 0.169-0.105 0.369-0.236 0.54-0.345 0.163-0.104 0.356-0.132 0.518-0.238 0.329-0.214 0.619-0.513 0.951-0.713-0.012-0.074-0.028-0.085-0.044-0.151-0.266 2e-3 -1.013 0.075-1.166 0.173-0.308 0.04-0.123 0.389-0.346 0.518-0.246 0.144-0.614 0.11-0.842 0.26l-0.259 0.259c-0.341 0.258-0.635 0.604-1.102 0.734h-0.302c-0.296 0.067-0.601-0.047-0.734-0.215-0.262 0.013-0.281 0.305-0.411 0.453-0.418 0.474-1.217 0.804-1.814 0.237-0.283 0.016-0.436 0.193-0.648 0.281-0.079 0.014-0.159 0.029-0.238 0.043-0.202 0.075-0.429 0.193-0.648 0.259-0.261 0.081-0.481 0.066-0.756 0.152-0.353 0.11-0.795 0.223-1.166 0.324-0.335 0.091-0.691 0.064-1.015 0.172-0.192 0.065-0.354 0.196-0.519 0.281m1.836 1.772c0.029 0.035 0.097 0.052 0.13 0.086 0.72-0.087 1.532-0.063 2.181-0.259 0.216-0.065 0.467-0.052 0.627-0.173 0.065-0.03 0.09-0.075 0.108-0.151 0.014-0.017-0.038-0.134-0.065-0.195-0.026-0.057-0.086-0.129-0.108-0.194-0.051-0.152-0.042-0.338-0.13-0.454 9e-3 -0.174-2e-3 -0.263-0.129-0.302-0.072-0.028-0.64 0.172-0.778 0.216-0.371 0.119-0.745 0.133-1.123 0.259-0.268 0.089-0.588 0.214-0.928 0.216-0.025 0.049-0.05 0.094-0.087 0.13 0.012 0.141 0.232 0.733 0.302 0.821m4.061-1.232c0.053-0.036 0.077-0.112 0.13-0.151-0.013-0.196-0.088-0.236-0.173-0.345-0.191 8e-3 -0.558 0.035-0.692 0.129-0.089 0.032-0.112 0.093-0.172 0.151 0.011 0.251 0.109 0.37 0.172 0.54 0.015 0.072 0.029 0.144 0.044 0.216 0.077 0.176 0.227 0.274 0.367 0.389 0.322-8e-3 0.567-0.211 0.777-0.345 2e-3 -0.193-0.057-0.175-0.151-0.26-0.13 2e-3 -0.249 0.027-0.324 0.087-0.168 2e-3 -0.192-0.027-0.28-0.087 0.01-0.244 0.154-0.222 0.302-0.324m1.469-0.864c-0.033-0.092-0.09-0.093-0.151-0.151-0.287 6e-3 -0.743 0.122-0.821 0.346-0.133 0.21 0.14 0.738 0.216 0.842 0.059 0.082 0.172 0.119 0.238 0.194 0.293 2e-3 0.669-0.134 0.733-0.367 0.034-0.075-0.156-0.78-0.215-0.864m1.598-0.54c0.08 0.178 0.124 0.351 0.216 0.497h0.087c0.021-0.022 0.042-0.043 0.064-0.064-0.022-0.156-0.087-0.283-0.129-0.411-0.063-0.193-0.048-0.379-0.13-0.562-0.043-0.05-0.086-0.1-0.13-0.151-0.146 7e-3 -0.143 0.058-0.216 0.13 0.012 0.25 0.157 0.382 0.238 0.561m-0.626 0.821c-0.086 0.06-0.186 0.052-0.281 0.108-0.043 0.05-0.086 0.101-0.13 0.151 0.022 0.111 0.075 0.104 0.13 0.173 0.245-4e-3 0.764-0.153 0.821-0.324 0.041-0.127-0.073-0.254-0.109-0.324-0.1-0.245-0.201-0.489-0.302-0.734-0.046-0.011-0.078-0.02-0.108-0.043-0.267 0.038-0.445 0.316-0.605 0.475-6e-3 0.168 0.031 0.244 0.152 0.28 0.137 0.05 0.447-0.228 0.54 0.044 0.017 0.022 8e-3 5e-3 0.021 0.043-0.051 0.04-0.077 0.115-0.129 0.151m-6.177 2.959c0.12 0.435 0.17 0.965 0.28 1.425 0.05 0.21 0 0.511 0.108 0.67 0.118 0.333 0.677 0.122 0.95 0.281 0.437-6e-3 0.873 0.014 1.232-0.065h0.302c0.305-0.069 0.661-0.101 0.972-0.194 0.558-0.167 1.147-0.393 1.663-0.605 0.173-0.071 0.351-0.078 0.518-0.151 0.924-0.401 1.78-0.886 2.614-1.382 0.014-0.038 4e-3 -0.021 0.022-0.044-0.021-0.227-0.362-0.732-0.476-0.928-0.029-0.094-0.057-0.187-0.086-0.281-0.05-0.096-0.149-0.197-0.195-0.302-7e-3 -0.044-0.014-0.087-0.021-0.13-0.164-0.321-0.406-0.7-0.497-1.08-0.263 0.01-0.253 0.208-0.432 0.302-0.162 0.086-0.338 0.098-0.518 0.173-0.054 0.023-0.138 0.089-0.195 0.108-0.108 0.015-0.216 0.029-0.323 0.044-0.117 0.058-0.191 0.217-0.303 0.28-0.072 0.041-0.129 0.012-0.216 0.043-0.189 0.068-0.389 0.184-0.605 0.238-0.138 0.035-0.242-0.01-0.345 0.043-0.342 0.177-0.665 0.487-1.059 0.605-0.183 0.055-0.263-0.119-0.367-0.151-0.121-0.038-0.733 0.159-0.864 0.194l-0.41 0.022c-0.141 0.038-0.315 0.093-0.476 0.129-0.251 0.057-0.559-9e-3 -0.798 0.043-0.182 0.04-0.527-0.073-0.605 0.065-0.043 0.075 0.093 0.519 0.13 0.648m6.998-7.559c0.108 0.108 0.215 0.215 0.323 0.324 0.125 0.071 0.454 0.085 0.605 0.151 0.093 0.04 0.204 0.171 0.367 0.129 0.444-0.112 0.921-0.261 1.491-0.28 0.211-8e-3 0.534-0.035 0.648 0.064 0.092 0.033 0.093 0.09 0.151 0.152-0.016 0.319-0.454 0.605-0.648 0.777-0.219 0.194-0.455 0.383-0.713 0.54-0.122 0.074-0.247 0.098-0.367 0.173-0.147 0.092-0.313 0.227-0.475 0.302-0.368 0.17-0.874 0.344-1.123 0.627 0.034 0.303 0.211 0.599 0.302 0.863 0.066 0.191 0.061 0.342 0.13 0.519 0.268 0.695 0.574 1.405 0.928 2.009 0.022 0.071 0.044 0.144 0.065 0.216 0.071 0.16 0.192 0.329 0.281 0.475 0.072 0.118 0.091 0.26 0.173 0.367 2e-3 0.292-0.118 0.314-0.281 0.432-0.352 0.253-0.753 0.476-1.145 0.691-0.294 0.162-0.601 0.361-0.907 0.518-0.488 0.252-0.986 0.371-1.533 0.562-0.149 0.052-0.315 0.163-0.454 0.216-0.948 0.363-2.122 0.551-3.391 0.518-0.086-0.051-0.25 6e-3 -0.367-0.021-0.341-0.078-0.782-0.054-0.951-0.302-0.079-0.118-0.06-0.254-0.107-0.411-0.09-0.293-0.14-0.701-0.217-1.015v-0.195c-0.11-0.403-0.14-0.816-0.259-1.23-0.069-0.242-0.196-0.515-0.281-0.735-0.09-0.236-0.096-0.524-0.237-0.713-0.14-0.173-0.499-0.055-0.734 0-0.404 0.094-0.938 0.173-1.513 0.173-0.143-7e-3 -0.287-0.014-0.431-0.021-0.224-0.075-0.297-0.159-0.454-0.281-7e-3 -0.721 1.09-0.968 1.598-1.232 0.17-0.087 0.427-0.09 0.497-0.28 0.043-0.109-0.162-0.341-0.259-0.389-0.065-7e-3 -0.13-0.014-0.194-0.022-0.034-0.012-0.081-0.074-0.109-0.086-0.234-0.105-0.395 0.084-0.539 0.129-0.304 0.097-0.807-0.101-0.951-0.194-0.957-0.621-1.096-1.915-1.922-2.592 0.014-0.182 0.098-0.213 0.173-0.324 0.062-0.013 0.13-0.052 0.172-0.064 0.354-0.104 0.808 0.353 0.973 0.475 0.084 0.063 0.184 0.1 0.258 0.173 0.271-0.012 0.328-0.199 0.519-0.281 0.192-0.084 0.396-0.022 0.583-0.13 0.163-0.414-0.191-1.463-0.497-1.577-0.165-0.061-0.426 0.051-0.648 0-0.274-0.062-0.518-0.139-0.713-0.28-0.327-0.238-0.796-0.83-0.95-1.231-0.102-0.267-0.156-0.477-0.302-0.692-0.235-0.346-0.723-0.523-1.015-0.821-0.704-0.715-1.27-2.077-1.555-3.218v-0.345c-0.097-0.436-0.012-1.018 0.173-1.318 0.201-0.328 0.569-0.479 0.971-0.604 0.144-0.015 0.288-0.029 0.432-0.044 0.185-0.06 0.408-0.177 0.605-0.237 0.308-0.095 0.614 0.121 0.886 0.043 0.232-0.067 0.468-0.489 0.691-0.627 0.116-0.072 0.434-0.155 0.562-0.194 0.104-0.032 0.246 0.024 0.323-0.022 0.018-0.025 0.057-0.076 0.044-0.129-0.015-0.06-0.118-0.123-0.152-0.173-0.113-0.171-0.184-0.328-0.28-0.518-0.076-0.148-0.197-0.315-0.26-0.475-0.047-0.122-0.042-0.423-0.065-0.54-0.039-0.211 0.184-0.271 0.13-0.497-0.077-0.324-0.277-0.634-0.367-0.972-0.068-0.255 0.125-0.538 0.086-0.713-0.029-0.134-0.132-0.188-0.194-0.281-0.097-0.145-0.187-0.391-0.238-0.561-0.05-0.173-0.013-0.426 0.022-0.562l0.022-0.497c0.082-0.245 0.251-0.501 0.324-0.734 0.073-0.239-0.246-0.599-0.13-0.994 0.054-0.182 0.194-0.411 0.302-0.561 0.062-0.085 0.18-0.148 0.216-0.259 0.067-0.207-0.078-0.463-0.129-0.583-0.073-0.172-0.134-0.333-0.238-0.476-0.215-0.296-0.774-0.6-0.561-1.252 0.049-0.153 0.156-0.236 0.237-0.346 0.085-0.115 0.095-0.348 0.195-0.454 0.829-0.873 2.284-0.415 2.829 0.411 0.211 0.319 0.165 0.81 0.281 1.231 0.105 0.381 0.477 0.885 0.41 1.382-0.026 0.198-0.085 0.376-0.173 0.519-0.04 0.065-0.112 0.122-0.129 0.216-0.019 0.096 0.121 0.426 0.151 0.561 0.067 0.308-0.224 0.42-0.13 0.713 0.057 0.172 0.228 0.314 0.281 0.519 0.12 0.461-0.142 0.752-0.151 1.144 0.18 0.171 0.421 0.38 0.562 0.583 0.099 0.144 0.135 0.38 0.281 0.475l0.323 0.109c0.212 0.113 0.409 0.283 0.605 0.41 0.169 0.11 0.396 0.147 0.54 0.281 0.328-0.016 0.636-0.453 0.951-0.583 0.086-0.037 0.286-0.108 0.41-0.065 0.058 0.02 0.139 0.098 0.259 0.065 0.123-0.035 0.21-0.171 0.324-0.217 0.087-0.014 0.173-0.028 0.259-0.043 0.204-0.057 0.426-0.138 0.583-0.237-2e-3 -0.227-0.309-0.792 0-0.994-0.074-0.192-0.229-0.268-0.28-0.453-0.09-0.32 0.162-0.61 0.108-0.8-0.04-0.138-0.168-0.281-0.216-0.432-0.096-0.299 0.046-0.754 0.173-0.928 0.037-0.052 0.11-0.078 0.15-0.13 0.215-0.016 0.579-0.081 0.821-0.021 0.132 0.031 0.336 0.067 0.519 0.021 0.337-0.085 0.615-0.287 0.907-0.411 0.236-0.099 0.47-0.097 0.734-0.172 0.134-0.038 0.354-0.093 0.497-0.065 0.144 7e-3 0.288 0.014 0.432 0.022 0.296 0.096 0.515 0.298 0.713 0.497 0.151 0.151 0.487 0.552 0.389 0.928-0.086 0.325-0.295 0.655-0.54 0.821-0.159 0.065-0.317 0.13-0.475 0.195-0.084 0.051-0.171 0.148-0.26 0.194-0.157 0.082-0.584 0.153-0.67 0.281-0.082 0.123-0.041 0.402-0.043 0.626 0.124 0.126 0.217 0.291 0.368 0.389 0.165 0.064 0.331 0.129 0.496 0.194 0.244 0.159 0.538 0.514 0.648 0.799 0.312 0.809-0.246 1.377-0.712 1.728-0.199 0.15-0.37 0.362-0.584 0.497-0.235 0.149-0.497 0.217-0.734 0.367l-0.302 0.302c-0.155 0.155-0.352 0.315-0.54 0.433-0.275 0.171-0.634 0.324-0.951 0.431-0.173 0.059-0.415 0.084-0.561 0.173-0.048 0.029-0.061 0.115-0.108 0.151 0.023 0.13 0.095 0.253 0.129 0.368 0.034 0.109-0.015 0.258 0 0.345 0.041 0.223 0.214 0.494 0.325 0.67 0.529-0.01 0.523-0.424 0.712-0.778 0.06-0.112 0.179-0.235 0.259-0.345 0.261-0.359 0.743-0.584 1.188-0.756 0.209-0.081 0.373-0.053 0.605-0.108 0.229-0.055 0.6-0.154 0.907-0.087 0.252 0.056 0.503 0.046 0.734 0.13 0.314 0.113 0.671 0.288 0.93 0.475 0.59 0.429 0.78 1.359 0.971 2.203-7e-3 0.339-0.014 0.677-0.021 1.015 5e-3 0.388 0.112 0.928 0 1.318-0.199 0.687-0.793 0.791-1.296 1.166-0.173 0.129-0.291 0.587-0.432 0.778-0.129 0.174-0.34 0.374-0.519 0.497-0.108 0.074-0.244 0.114-0.324 0.215-0.103 0.132-0.107 0.353-0.194 0.498-0.092 0.15-0.194 0.327-0.302 0.475-0.067 0.09-0.199 0.167-0.238 0.28v0.411c-0.042 0.17-0.058 0.504-0.151 0.647 0.018 0.293 0.473 0.296 0.67 0.433" fill="#231f20" fill-rule="evenodd"/></g><g transform="translate(17.326 105.51)"><path d="m0 0c0.131-0.036 0.24-0.137 0.345-0.194 0.082-0.044 0.189-0.053 0.259-0.108 0.108 0.021 0.121 0.079 0.195 0.129-0.015 0.425-0.754 0.598-1.253 0.584-0.046-0.037-0.083-0.017-0.151-0.044-0.123-0.047-0.24-0.15-0.346-0.216-0.013-0.037-4e-3 -0.021-0.021-0.043 0.012-0.109 0.042-0.106 0.086-0.173 0.277 3e-3 0.562 0.153 0.886 0.065" fill="#231f20" fill-rule="evenodd"/></g><g transform="translate(21.775 95.12)"><path d="m0 0c0.092 4e-3 0.115 0.018 0.173 0.043 0.087 0.227-0.095 0.688 0.065 0.929 2e-3 0.143-0.017 0.183-0.065 0.259-0.044 7e-3 -0.087 0.015-0.13 0.022-0.076-0.114-0.17-0.218-0.216-0.367-0.028-0.092 1e-3 -0.209-0.043-0.281-7e-3 -0.395 0.027-0.416 0.216-0.605" fill="#231f20" fill-rule="evenodd"/></g><g transform="translate(12.92 95.984)"><path d="m0 0h-0.065c-0.217-0.232-0.194-0.667-0.389-0.929 0.013-0.103 0.042-0.165 0.13-0.195 0.022-0.017 5e-3 -7e-3 0.043-0.021 0.204 0.189 0.281 0.326 0.367 0.648 0.028 0.104 0.083 0.297 0 0.389-0.025 0.064-0.05 0.06-0.086 0.108" fill="#231f20" fill-rule="evenodd"/></g></g></g></svg>
